<svg width="210" height="47" viewBox="0 0 210 47" fill="none" xmlns="http://www.w3.org/2000/svg">
<path d="M85.2869 4.87364C83.5047 3.7541 81.4741 3.19434 79.2564 3.19434C77.0387 3.19434 75.008 3.7541 73.2258 4.87364C71.4436 5.9718 70.0142 7.46408 68.9774 9.30905C67.9407 11.154 67.4023 13.1847 67.4023 15.361C67.4023 17.5373 67.9207 19.5893 68.9774 21.4129C70.0142 23.2579 71.4436 24.7288 73.2258 25.8483C75.008 26.9679 77.0387 27.5276 79.2564 27.5276C81.4741 27.5276 83.5047 26.9679 85.2869 25.8483C87.0691 24.7501 88.52 23.2579 89.5567 21.4129C90.6134 19.5679 91.1318 17.5373 91.1318 15.361C91.1318 13.1847 90.5934 11.1326 89.5567 9.30905C88.52 7.46408 87.0905 5.9718 85.2869 4.87364ZM88.2915 15.381C88.2501 17.3289 87.8774 19.1939 87.1934 20.9346C86.5093 22.6754 85.4726 24.1049 84.1473 25.2044C82.8207 26.3025 81.1628 26.8623 79.2363 26.9037C77.3085 26.8623 75.672 26.3025 74.3454 25.2044C73.0187 24.1062 72.0034 22.6754 71.2994 20.9346C70.5953 19.1939 70.2426 17.3289 70.2012 15.3596C70.1598 13.4118 70.4711 11.5468 71.1137 9.80603C71.7563 8.08531 72.7502 6.65582 74.0982 5.55765C75.4449 4.45949 77.1656 3.89972 79.2176 3.85831C81.2897 3.89972 83.0305 4.47953 84.3571 5.55765C85.7037 6.65582 86.7191 8.08664 87.3617 9.80603C88.0243 11.5682 88.3356 13.4332 88.2942 15.381H88.2915Z" fill="white"/>
<path d="M96.995 9.47396C97.6791 7.75323 98.6316 6.32375 99.8553 5.267C101.058 4.21025 102.529 3.67185 104.208 3.67185C105.7 3.71327 107.005 4.27304 108.104 5.35117C109.182 6.42929 110.051 7.85877 110.674 9.59954L110.737 9.78658L112.166 6.88485L112.188 6.84344L112.146 6.80202C111.131 5.70386 109.908 4.81277 108.56 4.19021C107.214 3.56899 105.742 3.23633 104.188 3.23633C102.551 3.23633 101.038 3.56765 99.6696 4.25167C98.3016 4.91431 97.1206 5.82677 96.1053 6.96635C95.11 8.10593 94.3231 9.41117 93.7847 10.862C93.2463 12.3129 92.9551 13.8466 92.9551 15.4003C92.9551 16.954 93.2036 18.5091 93.7005 19.96C94.1975 21.4108 94.923 22.7161 95.8768 23.8556C96.8093 24.9952 97.9703 25.9077 99.2755 26.5703C100.602 27.233 102.094 27.5656 103.731 27.5656C104.975 27.5656 106.219 27.3171 107.441 26.8402C108.663 26.3633 109.72 25.6178 110.57 24.6639C111.419 23.71 111.958 22.509 112.124 21.0782L111.958 21.0368C111.44 22.6947 110.507 24.0828 109.18 25.1195C107.854 26.1762 106.113 26.736 104 26.7774C102.01 26.6946 100.394 26.0934 99.15 24.9738C97.9062 23.8543 96.995 22.3834 96.4553 20.6426C95.9169 18.8805 95.6885 17.0155 95.7713 15.0676C95.9169 13.057 96.3097 11.192 96.9937 9.47263L96.995 9.47396Z" fill="white"/>
<path d="M118.818 4.25242C119.067 3.94114 119.357 3.79685 119.709 3.77548C121.533 3.73406 123.398 3.73407 125.243 3.75411H127.357C128.102 3.91977 128.766 4.27246 129.346 4.76944C129.926 5.28779 130.424 5.88898 130.817 6.53158C131.211 7.17418 131.542 7.7954 131.771 8.33513L131.916 8.29372L130.694 3.25712L130.672 3.19434H113.555V3.6499H113.638C114.114 3.69131 114.55 3.83693 114.923 4.12684C115.275 4.41674 115.482 4.83089 115.524 5.37062C115.545 5.61911 115.565 5.90902 115.565 6.2203C115.587 11.1941 115.587 16.2507 115.565 21.2459V24.5204C115.565 24.9345 115.544 25.2044 115.544 25.3073C115.503 25.8456 115.295 26.2812 114.943 26.551C114.57 26.8409 114.134 27.0066 113.658 27.028H113.575V27.4835H130.692L131.915 22.3855L131.769 22.3441C131.541 22.8825 131.231 23.4837 130.837 24.1263C130.464 24.7689 129.987 25.3487 129.449 25.847C128.91 26.344 128.246 26.6766 127.521 26.8423C125.325 26.8423 123.085 26.8209 120.889 26.8009C120.392 26.8009 119.874 26.8009 119.397 26.7795C119.107 26.7581 118.879 26.6138 118.693 26.3239C118.507 26.034 118.403 25.6813 118.403 25.2872V14.51L122.88 14.4886C123.834 14.4886 124.579 14.5928 125.076 14.8613C125.573 15.1098 126.03 15.7738 126.381 16.8305L126.547 17.2861V11.4626L126.401 11.7525C125.924 12.685 125.427 13.2862 124.889 13.5347C124.351 13.8046 123.687 13.9288 122.878 13.9075H118.402V5.3065C118.423 4.93376 118.567 4.56103 118.816 4.24974L118.818 4.25242Z" fill="white"/>
<path d="M155.644 26.0126C155.084 25.37 154.628 24.6246 154.338 23.8363C154.09 23.1937 153.509 21.6601 152.639 19.3395C151.726 16.9561 150.711 14.2615 149.593 11.2983L146.567 3.25712L146.546 3.19434H143.478L143.457 3.25712C142.627 5.47483 141.799 7.75398 140.969 10.0345C139.331 14.6355 137.591 19.278 135.788 23.8363C135.394 24.8517 134.917 25.6399 134.42 26.1983C133.923 26.7581 133.281 27.048 132.555 27.0694H132.473L132.451 27.525H138.316V27.0694H138.233C137.218 27.048 136.658 26.7167 136.512 26.0741C136.367 25.4115 136.43 24.686 136.7 23.8778C136.989 23.0281 137.342 22.0956 137.736 21.1003C137.965 20.4991 138.172 19.9193 138.379 19.3595H149.653C149.943 20.1678 150.213 20.9346 150.503 21.7015C150.731 22.3227 150.98 23.0481 151.27 23.8778C151.601 24.8517 151.664 25.6399 151.498 26.2197C151.311 26.7795 151.001 27.0694 150.503 27.0694H150.42V27.525H157.363V27.0694H157.3C156.74 27.0066 156.202 26.6552 155.642 26.0126H155.644ZM149.323 18.6555H138.609C139.188 17.1632 139.748 15.6295 140.308 14.1372C141.448 11.0699 142.691 7.7954 143.977 4.41808L149.323 18.6555Z" fill="white"/>
<path d="M174.236 3.66897H174.299C174.776 3.71038 175.273 3.87605 175.75 4.16595C176.227 4.45586 176.475 4.84996 176.517 5.38836C176.558 11.7088 176.558 18.072 176.538 24.331V25.3049L164.249 4.66293C164.02 4.18599 163.73 3.8333 163.399 3.62622C163.068 3.41915 162.591 3.2949 161.989 3.25348C161.118 3.19069 160.207 3.19069 159.275 3.21207H158.819V3.66764H158.902C159.275 3.66764 159.565 3.68901 159.732 3.75047C159.877 3.81326 159.96 3.87471 160.001 3.97891C160.043 4.10316 160.043 4.29019 160.043 4.49727V8.45574C160.064 14.0922 160.043 19.75 160.001 25.3049C159.96 25.8647 159.712 26.2588 159.235 26.5487C158.758 26.8386 158.261 27.0043 157.784 27.0457H157.701V27.5013H163.276L163.297 27.0457H163.214C162.925 27.0243 162.593 26.9415 162.241 26.7972C161.868 26.6516 161.536 26.4659 161.267 26.2174C160.997 25.9689 160.852 25.679 160.852 25.3049C160.852 24.9736 160.852 23.7926 160.874 21.782C160.895 19.7714 160.895 17.4294 160.915 14.7562C160.937 11.0261 160.957 7.66886 160.978 4.64289L174.573 27.4812L174.594 27.5227H177.413V26.7972C177.434 22.3204 177.434 17.7607 177.413 13.2853C177.392 10.6948 177.392 8.04159 177.392 5.40974C177.392 5.037 177.516 4.74709 177.806 4.49727C178.096 4.24878 178.427 4.04171 178.78 3.91746C179.153 3.77184 179.464 3.71038 179.754 3.66897H179.837V3.21341H174.22L174.242 3.66897H174.236Z" fill="white"/>
<path d="M181.551 3.64979H181.634C182.111 3.69121 182.566 3.83683 182.939 4.12673C183.312 4.41664 183.499 4.81075 183.54 5.37052C183.561 9.9088 183.581 14.4685 183.581 18.9239V24.3533C183.56 24.726 183.56 25.0373 183.54 25.3071C183.499 25.8455 183.292 26.2811 182.939 26.5509C182.566 26.8408 182.131 27.0065 181.654 27.0279H181.571V27.4834H188.39V27.0279H188.307C187.81 26.9865 187.374 26.8408 187.002 26.5509C186.629 26.261 186.442 25.8669 186.4 25.3071L186.359 21.5771V6.30302C186.359 5.93029 186.38 5.619 186.4 5.34914C186.442 4.81074 186.649 4.37522 187.002 4.10535C187.374 3.81545 187.81 3.6498 188.287 3.62842H188.37V3.17285H181.551V3.64979Z" fill="white"/>
<path d="M206.152 25.0794C204.825 26.1361 203.084 26.6959 200.971 26.7373C198.981 26.6545 197.365 26.0533 196.121 24.9338C194.877 23.8142 193.966 22.3433 193.427 20.6026C192.888 18.8404 192.66 16.9754 192.743 15.0276C192.825 13.0797 193.219 11.2147 193.903 9.47396C194.588 7.75323 195.541 6.32375 196.764 5.267C197.966 4.21025 199.437 3.67185 201.116 3.67185C202.609 3.71327 203.914 4.27304 205.012 5.35117C206.09 6.42929 206.96 7.85877 207.582 9.59954L207.645 9.78658L209.075 6.88485L209.096 6.84344L209.055 6.80202C208.039 5.70386 206.817 4.81277 205.469 4.19021C204.122 3.56899 202.65 3.23633 201.096 3.23633C199.458 3.23633 197.946 3.56765 196.578 4.25167C195.21 4.91431 194.029 5.82677 193.014 6.96635C192.018 8.10593 191.232 9.41117 190.693 10.862C190.155 12.3129 189.864 13.8466 189.864 15.4003C189.864 16.954 190.112 18.5091 190.609 19.96C191.106 21.4108 191.831 22.7161 192.785 23.8556C193.718 24.9952 194.879 25.9077 196.184 26.5703C197.511 27.233 199.003 27.5656 200.639 27.5656C201.883 27.5656 203.127 27.3171 204.349 26.8402C205.572 26.3633 206.629 25.6178 207.478 24.6639C208.328 23.71 208.866 22.509 209.032 21.0782L208.866 21.0368C208.389 22.6533 207.457 24.0413 206.152 25.0781V25.0794Z" fill="white"/>
<path d="M72.0078 41.8313V36.0693H73.7486L74.7853 40.0064L75.822 36.0693H77.5628V41.8313H76.4846V37.2931L75.3451 41.8313H74.2255L73.0859 37.2931V41.8313H72.0078Z" fill="white"/>
<path d="M84.1102 41.8313H82.8464L82.3494 40.5261H80.0489L79.5719 41.8313H78.3281L80.5659 36.0693H81.7883L84.1089 41.8313H84.1102ZM81.9753 39.5522L81.1884 37.4173L80.4015 39.5522H81.9766H81.9753Z" fill="white"/>
<path d="M84.9187 41.8313V36.0693H87.3635C87.9847 36.0693 88.4203 36.1107 88.7102 36.235C88.98 36.3392 89.2071 36.5249 89.3728 36.7948C89.5385 37.0646 89.6213 37.3545 89.6213 37.7072C89.6213 38.1427 89.497 38.4941 89.2486 38.7854C89.0001 39.0753 88.606 39.2409 88.109 39.3237C88.3575 39.4694 88.5645 39.635 88.7302 39.8007C88.8959 39.9663 89.1243 40.2977 89.3928 40.7332L90.0969 41.8527H88.7088L87.8592 40.5889C87.5692 40.1333 87.3622 39.8635 87.2379 39.7392C87.1337 39.615 87.0095 39.5522 86.8852 39.4907C86.761 39.4493 86.574 39.4279 86.3054 39.4279H86.077V41.8313H84.916H84.9187ZM86.0796 38.4941H86.9507C87.5105 38.4941 87.8632 38.4727 87.9874 38.4313C88.133 38.3899 88.2359 38.3071 88.3187 38.1828C88.4016 38.0586 88.443 37.913 88.443 37.7473C88.443 37.5603 88.4016 37.3946 88.2973 37.2704C88.1931 37.1461 88.0489 37.0833 87.8618 37.0419C87.7576 37.0205 87.4891 37.0205 87.0121 37.0205H86.0997V38.4914H86.0783L86.0796 38.4941Z" fill="white"/>
<path d="M90.8672 41.8313V36.0693H92.0281V41.8313H90.8672Z" fill="white"/>
<path d="M93.334 41.8313V36.0693H94.4736L96.8356 39.9236V36.0693H97.9137V41.8313H96.7527L94.4322 38.08V41.8313H93.334Z" fill="white"/>
<path d="M99.2793 41.8313V36.0693H103.549V37.0432H100.44V38.3284H103.342V39.3024H100.44V40.8775H103.673V41.8514H99.2793V41.83V41.8313Z" fill="white"/>
<path d="M107.197 41.8313V36.0693H108.938L109.975 40.0064L111.011 36.0693H112.752V41.8313H111.674V37.2931L110.535 41.8313H109.415L108.275 37.2931V41.8313H107.197Z" fill="white"/>
<path d="M119.321 41.8313H118.057L117.56 40.5261H115.26L114.783 41.8313H113.539L115.777 36.0693H116.999L119.32 41.8313H119.321ZM117.166 39.5522L116.379 37.4173L115.592 39.5522H117.168H117.166Z" fill="white"/>
<path d="M120.107 41.8313V36.0693H121.247L123.609 39.9236V36.0693H124.687V41.8313H123.526L121.206 38.08V41.8313H120.107Z" fill="white"/>
<path d="M131.278 41.8313H130.014L129.517 40.5261H127.217L126.74 41.8313H125.496L127.734 36.0693H128.956L131.277 41.8313H131.278ZM129.123 39.5522L128.336 37.4173L127.549 39.5522H129.125H129.123Z" fill="white"/>
<path d="M134.429 39.6939V38.72H136.937V41.0205C136.688 41.2489 136.336 41.456 135.88 41.6417C135.424 41.8288 134.948 41.9116 134.471 41.9116C133.869 41.9116 133.351 41.7873 132.895 41.5389C132.44 41.2904 132.109 40.9176 131.88 40.4607C131.652 39.9838 131.549 39.4868 131.549 38.927C131.549 38.3258 131.673 37.7875 131.922 37.3319C132.17 36.855 132.543 36.5023 133.02 36.2538C133.392 36.0667 133.849 35.9639 134.408 35.9639C135.133 35.9639 135.693 36.1095 136.087 36.4194C136.481 36.7093 136.75 37.1235 136.854 37.6632L135.693 37.8703C135.61 37.5804 135.465 37.3733 135.237 37.2076C135.009 37.042 134.74 36.9592 134.388 36.9592C133.869 36.9592 133.475 37.1248 133.165 37.4361C132.854 37.7674 132.71 38.2444 132.71 38.8656C132.71 39.5496 132.855 40.068 133.165 40.3993C133.477 40.752 133.869 40.9176 134.368 40.9176C134.616 40.9176 134.865 40.8762 135.093 40.772C135.342 40.6678 135.549 40.5649 135.714 40.4193V39.6939H134.429Z" fill="white"/>
<path d="M138.18 41.8313V36.0693H142.45V37.0432H139.341V38.3284H142.243V39.3024H139.341V40.8775H142.553V41.8514H138.18V41.83V41.8313Z" fill="white"/>
<path d="M143.691 41.8313V36.0693H145.432L146.469 40.0064L147.506 36.0693H149.246V41.8313H148.168V37.2931L147.029 41.8313H145.909L144.77 37.2931V41.8313H143.691Z" fill="white"/>
<path d="M150.596 41.8313V36.0693H154.865V37.0432H151.757V38.3284H154.658V39.3024H151.757V40.8775H154.968V41.8514H150.596V41.83V41.8313Z" fill="white"/>
<path d="M156.107 41.8313V36.0693H157.247L159.609 39.9236V36.0693H160.687V41.8313H159.526L157.206 38.08V41.8313H156.107Z" fill="white"/>
<path d="M163.275 41.83V37.0433H161.555V36.0693H166.134V37.0433H164.435V41.83H163.274H163.275Z" fill="white"/>
<path d="M169.494 41.8306V36.1113H170.655V40.8567H173.557V41.8306H169.495H169.494Z" fill="white"/>
<path d="M174.426 41.8313V36.0693H175.587V41.8313H174.426Z" fill="white"/>
<path d="M176.892 41.8313V36.0693H178.633L179.67 40.0064L180.707 36.0693H182.447V41.8313H181.391V37.2931L180.251 41.8313H179.112L177.972 37.2931V41.8313H176.894H176.892Z" fill="white"/>
<path d="M183.775 41.8313V36.0693H184.936V41.8313H183.775Z" fill="white"/>
<path d="M187.484 41.83V37.0433H185.764V36.0693H190.343V37.0433H188.644V41.83H187.483H187.484Z" fill="white"/>
<path d="M191.213 41.8313V36.0693H195.483V37.0432H192.374V38.3284H195.276V39.3024H192.374V40.8775H195.586V41.8514H191.213V41.83V41.8313Z" fill="white"/>
<path d="M196.727 36.0443H198.861C199.338 36.0443 199.711 36.0857 199.96 36.1485C200.291 36.2527 200.581 36.4184 200.831 36.6869C201.079 36.9568 201.245 37.2467 201.39 37.6194C201.515 37.9921 201.577 38.449 201.577 38.9874C201.577 39.4644 201.515 39.8785 201.39 40.2098C201.245 40.624 201.038 40.9767 200.769 41.2252C200.562 41.4122 200.292 41.5779 199.961 41.6807C199.712 41.7636 199.36 41.805 198.924 41.805H196.728V36.043L196.727 36.0443ZM197.888 37.0182V40.8524H198.759C199.09 40.8524 199.318 40.8311 199.463 40.7897C199.65 40.7482 199.815 40.6654 199.94 40.5412C200.064 40.437 200.168 40.2513 200.251 39.9814C200.334 39.7329 200.375 39.3802 200.375 38.9246C200.375 38.4691 200.334 38.1378 200.251 37.8879C200.168 37.6394 200.064 37.4524 199.92 37.3282C199.774 37.2039 199.608 37.0997 199.381 37.0583C199.215 37.0169 198.904 36.9955 198.427 36.9955H197.889V37.0169L197.888 37.0182Z" fill="white"/>
<path d="M49.8743 33.9175C48.9578 33.0491 48.0106 32.2275 47.0461 31.4687C48.199 28.7674 48.8309 25.7815 48.8309 22.654C48.8309 10.1413 38.6883 0 26.1769 0C13.6656 0 3.52294 10.1427 3.52294 22.654C3.52294 25.7975 4.17089 28.7834 5.32383 31.5008C3.42809 32.9864 1.64324 34.6763 0 36.5881C16.8719 29.1949 28.0727 26.8088 45.7675 33.8547C47.3787 34.4706 49.0848 35.2134 50.6959 35.8921C51.249 36.1285 51.8021 36.3663 52.3699 36.5868C51.5964 35.6543 50.7587 34.7699 49.8743 33.9175ZM10.7265 28.0246C10.4099 26.3025 10.2362 24.5177 10.2362 22.6526C10.2362 10.6623 17.3769 0.929836 26.1916 0.929836C35.0063 0.929836 42.1471 10.661 42.1471 22.6526C42.1471 24.5016 41.9734 26.2705 41.6568 27.9765C31.8147 22.8731 20.3922 22.984 10.7238 28.0232L10.7265 28.0246Z" fill="white"/>
<path d="M41.1057 39.6977C40.932 39.8553 40.7584 39.9983 40.5847 40.1399C40.5059 40.2027 40.427 40.2668 40.3629 40.3296C39.8098 40.7718 39.2567 41.1833 38.6729 41.5613C38.5153 41.6562 38.3563 41.7671 38.1986 41.8619C37.2194 40.5033 35.3544 38.5127 32.3378 37.6122C32.132 37.5494 31.9116 37.4853 31.7058 37.4386C31.5642 37.4065 31.4373 37.3758 31.2957 37.3437C31.09 37.2969 30.8856 37.2649 30.6959 37.2489C30.1588 37.17 29.6538 37.138 29.1795 37.138C28.8482 37.138 28.5156 37.154 28.2003 37.1847C28.1054 37.2007 27.9945 37.2007 27.8997 37.2168C27.8369 37.2168 27.7728 37.2328 27.71 37.2328C27.4882 37.2649 27.2838 37.2956 27.0941 37.3277C26.9364 37.3597 26.7935 37.3905 26.6519 37.4225C26.6051 37.4386 26.557 37.4386 26.5103 37.4546C26.4314 37.4706 26.3526 37.5013 26.2738 37.5174C25.6579 37.675 25.1997 37.8487 24.9312 37.9596C25.4215 38.5287 27.3172 40.8506 26.6051 42.4778C26.4154 42.92 26.036 43.2994 25.4829 43.6C25.356 43.6628 25.2304 43.727 25.0875 43.7897C24.3286 44.1064 23.3333 44.28 22.1804 44.28C21.7061 44.28 21.2011 44.248 20.6801 44.1852C20.4744 44.1531 20.2539 44.1384 20.0322 44.0903C19.8104 44.0436 19.59 44.0115 19.3682 43.9634C19.1625 43.9166 18.9581 43.8686 18.7523 43.8218C18.7056 43.8058 18.6575 43.8058 18.6107 43.7897C18.2941 43.7109 17.9628 43.6161 17.6154 43.5052C17.3789 43.4264 17.1251 43.3475 16.8886 43.2527C16.9354 43.2847 16.9835 43.3155 17.0302 43.3475C15.387 42.6208 13.8547 41.7043 12.4492 40.6302C20.4276 41.2461 24.9138 37.9289 21.0903 33.3625C33.0498 30.219 41.1057 39.6977 41.1057 39.6977Z" fill="white"/>
<path d="M19.3691 43.9951C19.5909 44.0419 19.8113 44.09 20.0331 44.122C19.8113 44.09 19.5909 44.0432 19.3691 43.9951Z" fill="#00ABE7"/>
<path d="M37.2058 42.4652C33.9353 44.2821 30.1759 45.3095 26.1787 45.3095C25.7993 45.3095 25.4052 45.2935 25.0257 45.2775C24.836 45.2454 24.6624 45.2147 24.4727 45.1826C26.0371 44.8032 27.174 44.0297 27.6322 42.9395C28.2641 41.486 27.5855 39.8427 26.7638 38.5629C27.4425 38.4052 28.2494 38.2783 29.1499 38.2783C30.1131 38.2783 31.0616 38.4199 31.9781 38.6885C34.6166 39.494 36.2746 41.2001 37.2071 42.4639L37.2058 42.4652Z" fill="#56D8FC"/>
<path d="M29.1636 37.1504C28.8322 37.1504 28.4996 37.1664 28.1843 37.1971C28.5009 37.1651 28.8322 37.1504 29.1636 37.1504C29.6539 37.1504 30.1589 37.1825 30.6799 37.2613C30.1589 37.1825 29.6525 37.1504 29.1636 37.1504ZM27.694 37.2453C27.4722 37.2773 27.2678 37.308 27.0781 37.3401C27.2678 37.308 27.4883 37.2773 27.694 37.2453Z" fill="white"/>
<path d="M60.1666 1.95508H59.6055V46.3319H60.1666V1.95508Z" fill="#B8BABC"/>
</svg>
