<svg width="183" height="71" viewBox="0 0 183 71" fill="none" xmlns="http://www.w3.org/2000/svg">
<path d="M178.981 46.4653C177.848 47.8659 176.58 49.1997 175.247 50.4002C169.978 55.1356 163.708 58.2703 157.239 60.9381C151.837 63.2057 146.234 64.9398 140.432 65.6734C137.63 66.0069 134.829 66.0069 132.095 65.0065C131.094 64.6063 130.094 64.1395 129.227 63.4725C126.692 61.6051 126.159 58.5371 127.893 55.8693C129.427 53.4016 131.828 52.001 134.496 51.1339C136.363 50.5337 138.364 50.2669 140.365 49.8667C141.032 49.7333 141.632 49.6666 142.299 49.5999C142.299 49.3998 142.232 49.1997 142.232 48.9996C139.565 49.133 136.964 49.133 134.362 49.3998C125.425 50.4669 116.822 53.2681 108.285 55.936C96.613 59.5375 84.9413 63.2057 72.8695 65.34C62.1983 67.2074 51.3937 68.1411 40.7224 65.6734C28.8507 62.9389 17.5126 58.6037 7.97514 50.667C5.44073 48.5328 3.30647 46.0651 1.77248 43.1305C-1.49558 36.7278 -0.22837 29.7248 5.44072 23.7889C10.2428 18.7201 16.1119 15.3186 22.448 12.4508C33.6528 7.44862 45.4578 4.51398 57.5296 2.64652C84.141 -1.35519 110.619 -0.954971 136.897 4.78081C146.834 6.91506 156.439 9.98303 165.509 14.7851C170.645 17.5196 175.447 20.7876 179.115 25.3895C184.317 32.1924 184.317 39.6624 178.981 46.4653Z" fill="white"/>
<path d="M37.053 22.455V33.9932C38.1868 33.2596 39.1206 32.7927 39.1206 32.7927C39.1206 32.7927 40.1877 33.3263 41.3882 34.1267V22.3882H37.053V22.455ZM39.6541 43.7307L39.7208 45.0646H41.3882V43.7307H39.6541ZM37.053 44.9979H38.4536L38.5203 43.664H36.9863L37.053 44.9979ZM45.7234 44.9979V22.3882H50.392L52.4596 33.1929V22.3882H56.7948V44.9979H52.3929L50.1253 33.6597V44.9979H45.7234ZM62.864 44.9979V26.7234H60.1962V22.3882H70.0671V26.7234H67.3993V44.9979H62.864ZM73.4686 44.9979V22.3882H82.5391V26.7234H78.0705V31.1254H82.339V35.3938H78.0705V40.596H82.8059V44.9979H73.4686ZM86.4074 22.455H93.3437C94.4775 22.455 95.2779 22.7218 95.8781 23.1886C96.4784 23.6555 96.8785 24.3891 97.0786 25.3228C97.2787 26.2566 97.4121 27.3904 97.4121 28.791C97.4121 30.0582 97.212 31.0587 96.9452 31.7923C96.6118 32.526 96.0115 32.9928 95.2112 33.2596C95.8781 33.393 96.4117 33.7264 96.6785 34.26C97.012 34.7936 97.1453 35.5272 97.1453 36.461L97.0786 44.9979H92.6768V36.1275C92.6768 35.5272 92.5434 35.0604 92.2766 34.927C92.0098 34.7269 91.6096 34.6602 90.9427 34.6602V44.9979H86.3407L86.4074 22.455ZM92.0765 30.7919C92.6768 30.7919 93.0102 30.1249 93.0102 28.7243C93.0102 28.124 93.0102 27.6572 92.9435 27.3904C92.8768 27.1236 92.8102 26.8569 92.6768 26.7902C92.5434 26.6568 92.3433 26.5901 92.0765 26.5901H91.0094V30.7919H92.0765ZM101.947 43.7307C101.014 42.7303 100.547 41.0629 100.547 38.7953V36.5943H105.015V39.3955C105.015 40.5293 105.349 41.0629 106.082 41.0629C106.483 41.0629 106.749 40.9295 106.95 40.7294C107.083 40.4626 107.216 40.0625 107.216 39.5289C107.216 38.7953 107.15 38.195 106.95 37.7281C106.749 37.2613 106.549 36.8611 106.283 36.5277C106.016 36.1942 105.549 35.7273 104.815 34.9936L102.881 33.0595C101.347 31.5922 100.613 29.9248 100.613 28.1908C100.613 26.2566 101.08 24.7893 101.947 23.7889C102.814 22.7885 104.148 22.2549 105.816 22.2549C107.883 22.2549 109.284 22.7885 110.218 23.8556C111.085 24.9227 111.551 26.5901 111.551 28.9244H106.95V27.3904C106.95 27.1236 106.883 26.8568 106.683 26.6567C106.483 26.4567 106.283 26.3899 106.016 26.3899C105.682 26.3899 105.416 26.4567 105.215 26.6567C105.015 26.8568 104.949 27.1237 104.949 27.4571C104.949 28.1908 105.349 28.9244 106.216 29.7247L108.817 32.2592C109.417 32.8594 109.951 33.393 110.351 33.9265C110.751 34.4601 111.085 35.1271 111.351 35.794C111.618 36.5277 111.752 37.3946 111.752 38.3951C111.752 40.596 111.351 42.3302 110.551 43.464C109.751 44.5978 108.417 45.198 106.483 45.198C104.348 45.2647 102.881 44.7311 101.947 43.7307ZM115.286 44.9979V22.3882H119.755V30.4584H121.889V22.3882H126.358V44.9979H121.889V34.7268H119.755V44.9979H115.286ZM130.226 44.9979V28.4576H134.695V44.9979H130.226ZM138.63 22.455H144.632C146.433 22.455 147.7 23.0552 148.501 24.1891C149.301 25.3896 149.634 27.0569 149.634 29.3246C149.634 31.5922 149.301 33.2595 148.634 34.3934C147.967 35.5272 146.7 36.1275 144.966 36.1275H143.098V45.0646H138.63V22.455ZM143.298 31.9924C143.832 31.9924 144.232 31.859 144.499 31.6589C144.766 31.4588 144.899 31.1921 144.966 30.7919C145.032 30.3917 145.099 29.8581 145.099 29.1912C145.099 28.2575 144.966 27.5905 144.766 27.1237C144.566 26.7235 144.165 26.5234 143.498 26.5234H143.032V31.9924H143.298Z" fill="#0D47A1"/>
<path d="M130.227 26.5235V22.4551H134.695V26.5235H130.227ZM39.1211 34.1267C39.1211 34.1267 34.7192 36.461 33.252 38.5953C34.7192 40.396 35.5196 42.5302 36.4533 45.0647H38.5209L38.5876 43.7308L39.1211 34.4602L39.6547 43.7308L39.7214 45.0647H41.7889C42.7227 42.5302 43.523 40.396 44.9903 38.5953C43.523 36.3943 39.1211 34.1267 39.1211 34.1267ZM66.5995 69.6752L86.5414 70.4088C120.289 71.0091 130.16 68.5414 130.16 68.5414C128.693 68.8082 126.892 68.0078 125.825 67.0741C123.424 64.9398 121.49 62.939 121.956 59.3374C122.223 56.9364 124.157 55.2691 124.157 55.2691C124.157 55.2691 120.956 55.0022 102.015 62.4054C83.0732 69.8086 66.5995 69.6752 66.5995 69.6752Z" fill="#42A5F5"/>
</svg>
