<svg width="393" height="98" viewBox="0 0 393 98" fill="none" xmlns="http://www.w3.org/2000/svg">
<rect width="393" height="98" fill="#31B3F4"/>
<g clip-path="url(#clip0_425_562)">
<path d="M419.998 113.437C411.769 105.003 402.056 98.972 390.173 97.6769C378.716 96.4312 367.347 99.3149 356.549 102.967C345.631 106.719 335.072 111.393 324.499 116.036C295.644 128.77 265.825 141.841 236.54 153.419C225.704 157.57 215.451 163.138 204.331 166.571C200.829 167.635 197.203 168.44 193.538 168.735L191.345 168.865L189.149 168.916C188.417 168.904 187.685 168.903 186.955 168.88C178.211 168.6 169.564 166.105 162.004 161.726C169.727 165.613 178.329 167.724 186.973 167.666C188.915 167.663 191.448 167.505 193.401 167.293C196.942 166.876 200.4 166.002 203.785 164.857C214.723 161.112 224.847 155.324 235.564 151.004C263.51 139.403 295.345 125.419 323.329 113.344C339.362 106.592 355.516 99.3402 372.807 96.4834C380.052 95.3575 387.549 95.2433 394.699 97.0279C404.783 99.4785 413.279 105.685 419.999 113.44L419.998 113.437Z" fill="white"/>
<path d="M419.998 107.241C405.541 92.1282 390.062 87.5699 369.698 91.9829C359.672 94.1527 350.061 97.8674 340.615 101.82C331.383 105.693 318.18 111.839 308.914 116.027C290.407 124.376 271.787 132.486 252.967 140.108C244.951 143.373 236.747 146.501 228.665 149.599C217.854 153.816 207.435 159.528 195.869 161.476C192.96 161.932 190.011 162.039 187.077 161.982C178.321 161.819 169.639 159.418 162.004 155.156C164.62 156.406 167.312 157.485 170.074 158.332C176.94 160.49 184.221 161.191 191.376 160.544C195.663 160.221 199.802 159.098 203.853 157.667C212.022 154.737 219.731 150.692 227.743 147.339C233.038 145.16 238.584 142.989 243.861 140.795C270.631 129.778 297.117 117.96 323.543 106.142C342.613 97.9647 365.196 87.323 386.288 88.7818C400.155 89.837 411.127 96.8121 419.999 107.241H419.998Z" fill="white"/>
<path d="M419.996 101.043C407.028 87.2062 392.585 81.1609 373.628 84.0756C369.374 84.7076 365.181 85.7164 361.056 86.9311C343.056 92.4064 326.229 101.019 309.191 108.913C286.818 119.339 264.172 129.288 241.118 138.122C234.508 140.718 227.35 143.107 220.762 145.756C211.522 149.423 201.656 154.284 191.596 154.973L190.496 155.027C190.129 155.043 189.764 155.069 189.398 155.069L188.298 155.086L187.748 155.093L187.198 155.082C178.428 155.004 169.713 152.735 162 148.588C170.837 152.709 180.7 154.534 190.414 153.693C195.064 153.365 199.556 152.093 203.918 150.461C210.677 147.933 217.227 144.692 223.934 141.982C246.95 133.187 269.628 123.515 292.08 113.361C310.668 105.118 328.815 95.8333 347.896 88.7214C356.142 85.722 364.619 83.136 373.358 82.0624C392.759 79.6259 407.529 86.1594 419.997 101.043H419.996Z" fill="white"/>
<path d="M419.998 94.8504C408.603 82.4438 395.274 75.2895 378.144 76.4662C368.098 77.1151 358.353 80.1328 348.973 83.7022C335.566 88.8629 322.377 95.4246 309.428 101.691C291.114 110.568 272.519 119.01 253.643 126.622C242.881 130.991 231.903 135.019 220.909 138.756C212.341 141.795 204.054 145.903 195.04 147.581C194.859 147.619 194.676 147.646 194.493 147.671L193.943 147.751L192.844 147.909L191.735 148.01L191.181 148.059L190.905 148.083L190.63 148.094L189.53 148.142L188.98 148.166C179.654 148.439 170.286 146.303 162.004 142.025C170.265 145.69 179.36 147.457 188.385 146.916C189.086 146.889 190.097 146.796 190.803 146.743L191.068 146.71C191.394 146.668 192.317 146.555 192.656 146.511C193.651 146.338 194.827 146.125 195.801 145.878C204.953 143.626 213.327 139.044 222.185 135.872C224.19 135.126 226.323 134.356 228.307 133.612C255.458 123.391 281.94 111.46 308.099 98.9347C326.525 90.2596 344.932 80.8227 364.925 76.2729C369.235 75.3361 373.638 74.7041 378.053 74.5531C395.49 73.8237 409.169 81.5832 419.999 94.849L419.998 94.8504Z" fill="white"/>
<path d="M419.998 88.6511C413.464 81.4461 405.606 75.1483 396.349 71.9175C394.676 71.3391 392.915 70.8171 391.186 70.4475C374.044 66.7413 356.762 72.9234 341.072 79.4442C326.385 85.6941 312.209 93.1728 297.863 100.179C276.919 110.38 255.515 119.888 233.579 127.762C228.273 129.686 222.389 131.602 217.012 133.338C207.356 136.526 197.858 141.377 187.454 141.264C178.672 141.366 169.875 139.326 162.004 135.453C170.679 139.12 180.195 140.721 189.578 139.914C191.716 139.742 193.821 139.36 195.899 138.807C203.603 136.767 210.824 133.124 218.38 130.573C219.886 130.048 222.024 129.302 223.518 128.78C230.593 126.251 237.902 123.444 244.868 120.621C266.351 111.882 287.484 101.964 308.249 91.6181C329.242 81.5393 354.846 67.9419 378.35 67.4509C395.644 67.0869 409.404 75.4135 419.999 88.6497L419.998 88.6511Z" fill="white"/>
<path d="M419.996 82.4564C407.555 68.55 393.365 60.785 374.348 62.5132C365.731 63.2891 357.351 65.7171 349.253 68.7024C335.651 73.7785 322.673 80.3642 309.737 86.9442C299.546 92.1952 288.742 97.7044 278.391 102.555C259.57 111.406 240.278 119.483 220.42 125.719C218.267 126.375 215.207 127.29 213.093 127.928C207.538 129.647 202.056 131.845 196.378 133.216C194.049 133.787 191.636 134.175 189.235 134.305C184.646 134.498 180.026 134.178 175.523 133.292C170.861 132.396 166.304 130.881 162 128.886C166.062 130.483 170.271 131.701 174.571 132.417C178.846 133.137 183.215 133.368 187.537 133.137C188.054 133.1 188.694 133.066 189.156 133.03C189.953 132.955 191.007 132.829 191.809 132.69C198.966 131.413 205.581 128.292 212.463 125.987C214.01 125.476 217.244 124.412 218.698 123.94C234.527 118.634 250.023 112.223 265.217 105.311C279.759 98.7301 294.142 91.4856 308.352 84.2157C329.179 73.9605 355.138 60.2531 378.639 60.3758C396.094 60.5155 409.362 69.0918 419.996 82.455V82.4564Z" fill="white"/>
<path d="M419.996 76.2621C407.845 62.4193 393.427 54.0193 374.58 55.3624C363.024 56.1581 351.92 59.9433 341.275 64.338C322.511 72.1948 304.642 82.4189 286.503 91.6047C266.932 101.496 246.828 110.638 225.997 117.549C220.597 119.35 214.651 121.06 209.151 122.525C203.514 124.093 197.975 126.147 192.152 127.054C190.689 127.291 189.186 127.408 187.709 127.436C182.924 127.548 178.135 127.092 173.464 126.065C172.076 125.767 170.562 125.377 169.205 124.966C166.782 124.245 164.316 123.337 162 122.321C167.461 124.338 173.176 125.686 178.98 126.137C182.405 126.408 185.852 126.412 189.268 126.093C189.558 126.076 190.544 125.928 190.863 125.887C195.511 125.123 199.963 123.537 204.421 122.043C209.869 120.207 215.681 118.619 221.116 116.761C237.615 111.144 253.733 104.143 269.441 96.6102C282.588 90.3392 295.486 83.453 308.414 76.739C328.901 66.4316 354.574 53.0261 377.813 53.297C395.626 53.5016 409.268 62.5576 419.994 76.2621H419.996Z" fill="white"/>
<path d="M419.996 70.064C411.963 60.7879 401.854 52.7266 389.769 49.7103C368.166 44.2194 344.698 54.7412 325.443 63.951C304.107 74.4107 283.634 86.6466 262.062 96.6535C249.815 102.377 237.15 107.699 224.282 111.866C222.487 112.471 219.703 113.283 217.964 113.823C216.262 114.32 214.345 114.82 212.65 115.294C210.263 115.911 207.559 116.556 205.172 117.123C199.12 118.555 193.049 120.54 186.734 120.543C185.626 120.551 184.519 120.538 183.415 120.486C176.072 120.183 168.786 118.552 162 115.753C167.861 117.77 173.986 119.039 180.173 119.351C181.145 119.41 182.453 119.437 183.438 119.441C184.526 119.451 185.614 119.421 186.701 119.37C193.61 119.077 200.172 116.484 206.851 114.808C231.535 108.253 254.788 97.3264 277.439 85.6774C293.042 77.6062 308.284 68.8535 324.166 61.3071C343.273 52.4105 365.518 42.8805 386.939 47.3598C389.463 47.9002 392.001 48.6691 394.402 49.62C404.75 53.6746 413.263 61.3692 419.991 70.0654L419.996 70.064Z" fill="white"/>
<path d="M419.996 63.869C405.551 47.0225 388.864 38.3658 366.394 41.8716C351.995 44.1473 338.488 50.0162 325.431 56.3169C309.712 63.9691 294.348 72.8939 278.948 81.1881C260.807 90.8704 242.193 100.065 222.567 106.34C220.119 107.154 216.581 108.154 214.08 108.844C213.315 109.063 212.664 109.202 211.934 109.386C211.241 109.552 208.933 110.121 208.173 110.304C206.982 110.564 206.456 110.653 205.462 110.863C202.567 111.464 199.707 111.997 196.802 112.526C193.186 113.17 189.467 113.716 185.759 113.647C182.809 113.632 179.851 113.407 176.929 113.014C171.831 112.316 166.803 111.028 162 109.187C164.086 109.84 166.228 110.434 168.365 110.898C174.061 112.161 179.919 112.701 185.748 112.516C189.382 112.439 192.939 111.793 196.51 111.029C199.12 110.461 202.548 109.719 205.076 109.107C215.699 106.629 226.097 102.923 236.164 98.7371C255.692 90.5671 274.399 80.288 292.894 70.0116C316.488 57.3031 347.927 39.0063 374.999 39.098C393.914 39.0331 408.876 49.1839 419.994 63.869H419.996Z" fill="white"/>
<path d="M419.998 57.675C413.026 49.4979 404.725 42.1406 394.737 37.9462C374.59 29.3403 352.271 36.5255 333.3 44.9636C306.693 56.9075 281.561 73.3265 255.563 86.5034C229.556 99.6268 200.025 111.339 170.505 105.033C167.625 104.397 164.784 103.601 162.004 102.62C164.83 103.429 167.697 104.089 170.594 104.572C179.969 106.126 189.614 105.973 198.982 104.455C203.98 103.673 209.059 102.478 213.916 101.053C218.091 99.8271 222.296 98.3867 226.358 96.8164C257.892 84.5241 285.976 65.0986 316.124 49.9339C339.29 38.4555 368.114 25.2278 393.775 35.9697C404.422 40.4307 413.1 48.5767 419.999 57.6764L419.998 57.675Z" fill="white"/>
</g>
<defs>
<clipPath id="clip0_425_562">
<rect width="231" height="73" fill="white" transform="translate(162 25)"/>
</clipPath>
</defs>
</svg>
